HIERARCHY
ROOT SpineBase
{
  OFFSET 0.000000 0.000000 0.000000
  CHANNELS 6 Xposition Yposition Zposition Zrotation Xrotation Yrotation
  JOINT SpineMid
  {
    OFFSET -0.000000 27.718454 0.000000
    CHANNELS 3 Zrotation Xrotation Yrotation
    JOINT SpineShoulder
    {
      OFFSET 0.266702 20.628848 -0.639461
      CHANNELS 3 Zrotation Xrotation Yrotation
      JOINT Neck
      {
        OFFSET 0.164997 6.840891 -0.528451
        CHANNELS 3 Zrotation Xrotation Yrotation
        JOINT Head
        {
          OFFSET 3.705841 13.601677 -0.887546
          CHANNELS 3 Zrotation Xrotation Yrotation
          End Site
          {
            OFFSET 0 0 0
          }
        }
      }
      JOINT ShoulderLeft
      {
        OFFSET -15.327664 -1.157971 -9.176124
        CHANNELS 3 Zrotation Xrotation Yrotation
        JOINT ElbowLeft
        {
          OFFSET -3.036047 -25.248226 -6.091614
          CHANNELS 3 Zrotation Xrotation Yrotation
          JOINT WristLeft
          {
            OFFSET 3.150598 -19.996666 -4.158748
            CHANNELS 3 Zrotation Xrotation Yrotation
            JOINT HandLeft
            {
              OFFSET 0.926677 -6.904262 0.096816
              CHANNELS 3 Zrotation Xrotation Yrotation
              JOINT HandTipLeft
              {
                OFFSET 1.035686 -6.283179 0.318546
                CHANNELS 3 Zrotation Xrotation Yrotation
                End Site
                {
                  OFFSET 0 0 0
                }
              }
              JOINT ThumbLeft
              {
                OFFSET -2.523307 -1.432590 -1.737688
                CHANNELS 3 Zrotation Xrotation Yrotation
                End Site
                {
                  OFFSET 0 0 0
                }
              }
            }
          }
        }
      }
      JOINT ShoulderRight
      {
        OFFSET 12.860127 -4.090266 8.965257
        CHANNELS 3 Zrotation Xrotation Yrotation
        JOINT ElbowRight
        {
          OFFSET 0.394841 -24.751828 4.565248
          CHANNELS 3 Zrotation Xrotation Yrotation
          JOINT WristRight
          {
            OFFSET 2.045980 -21.430317 -3.735874
            CHANNELS 3 Zrotation Xrotation Yrotation
            JOINT HandRight
            {
              OFFSET 0.795394 -2.715994 -2.513872
              CHANNELS 3 Zrotation Xrotation Yrotation
              JOINT HandTipRight
              {
                OFFSET 0.491524 -4.774147 -0.592570
                CHANNELS 3 Zrotation Xrotation Yrotation
                End Site
                {
                  OFFSET 0 0 0
                }
              }
              JOINT ThumbRight
              {
                OFFSET -2.234134 -0.495798 -2.967450
                CHANNELS 3 Zrotation Xrotation Yrotation
                End Site
                {
                  OFFSET 0 0 0
                }
              }
            }
          }
        }
      }
    }
  }
  JOINT HipLeft
  {
    OFFSET -5.071890 1.037023 -6.428997
    CHANNELS 3 Zrotation Xrotation Yrotation
    JOINT KneeLeft
    {
      OFFSET -8.715609 -24.059479 -3.491630
      CHANNELS 3 Zrotation Xrotation Yrotation
      JOINT AnkleLeft
      {
        OFFSET -6.410171 -37.365210 5.813591
        CHANNELS 3 Zrotation Xrotation Yrotation
        JOINT FootLeft
        {
          OFFSET -1.270712 -7.900991 -5.166658
          CHANNELS 3 Zrotation Xrotation Yrotation
          End Site
          {
            OFFSET 0 0 0
          }
        }
      }
    }
  }
  JOINT HipRight
  {
    OFFSET 6.055604 0.515104 0.183224
    CHANNELS 3 Zrotation Xrotation Yrotation
    JOINT KneeRight
    {
      OFFSET -4.730044 -24.912969 3.632731
      CHANNELS 3 Zrotation Xrotation Yrotation
      JOINT AnkleRight
      {
        OFFSET -7.988988 -37.192488 5.094527
        CHANNELS 3 Zrotation Xrotation Yrotation
        JOINT FootRight
        {
          OFFSET 6.292923 -3.723529 -10.819993
          CHANNELS 3 Zrotation Xrotation Yrotation
          End Site
          {
            OFFSET 0 0 0
          }
        }
      }
    }
  }
}
MOTION
Frames: 5
Frame Time: 0.033333
-57.669349 72.989563 345.943833 -8.242138 1.976469 -32.719924 2.154213 -0.209081 32.587756 0.542656 -0.071185 -0.266791 -6.065293 11.067741 -2.293464 0.000000 0.000000 0.000000 47.993797 29.324500 -24.319011 95.488121 -33.945440 72.195524 -27.202859 -36.612929 53.013111 34.629383 16.145345 -30.262656 0.000000 0.000000 0.000000 0.000000 0.000000 0.000000 29.632556 24.666155 0.231154 -42.419150 -11.540135 -11.248822 -3.789286 -55.632351 -22.562355 12.156625 34.335101 -1.368278 0.000000 0.000000 0.000000 0.000000 0.000000 0.000000 12.221431 5.807154 31.485494 0.194504 -3.812139 2.480988 -6.249317 10.177088 -1.414292 0.000000 0.000000 0.000000 10.444453 5.023365 32.869511 0.587846 -1.026666 0.297746 -4.432234 0.292598 0.759759 0.000000 0.000000 0.000000
-57.539894 72.968998 346.039402 -7.638593 1.482094 -34.657685 2.344097 -0.103838 34.508487 0.730270 -0.158501 -0.213762 -6.743876 10.859600 -2.145715 0.000000 0.000000 0.000000 42.825194 27.630932 -21.497312 89.181212 -36.953926 63.663683 -26.674058 -31.848603 45.538924 34.846874 8.768839 -28.560806 0.000000 0.000000 0.000000 0.000000 0.000000 0.000000 28.732050 29.965914 -1.196894 -34.192079 -20.573699 -12.677909 -9.531630 -50.758874 -16.587071 19.529252 24.031076 -8.124999 0.000000 0.000000 0.000000 0.000000 0.000000 0.000000 10.615816 5.454168 33.701817 0.511796 -2.890069 1.952802 0.660568 14.787326 -6.766422 0.000000 0.000000 0.000000 9.356277 5.558334 34.721152 0.994536 -1.174416 0.393951 -2.938008 1.022204 -3.287837 0.000000 0.000000 0.000000
-57.360274 73.037422 346.062454 -6.926274 1.018152 -37.385991 2.507613 0.057795 37.229091 0.826893 -0.121412 -0.162074 -7.485740 9.750365 -1.888885 0.000000 0.000000 0.000000 35.797741 24.405650 -17.253294 77.538431 -39.065575 49.010485 -22.875345 -26.449068 36.649305 34.799168 7.471171 -25.350724 0.000000 0.000000 0.000000 0.000000 0.000000 0.000000 25.467616 31.312231 -1.466778 -24.313691 -20.208837 -9.698454 -17.569672 -52.034622 -14.632917 26.268595 24.628773 -13.863234 0.000000 0.000000 0.000000 0.000000 0.000000 0.000000 8.846291 4.973899 36.749638 1.038181 -2.152040 1.476128 13.003857 16.074013 -16.137283 0.000000 0.000000 0.000000 7.924982 6.159090 37.357279 1.422577 -1.637338 0.574212 -3.009185 -0.084403 -6.177419 0.000000 0.000000 0.000000
-57.148324 73.178559 346.079299 -6.170763 0.556174 -40.643409 2.562700 0.279586 40.485289 0.868049 -0.056145 -0.116732 -8.510351 9.043467 -1.710769 0.000000 0.000000 0.000000 28.628418 19.950956 -12.876855 63.202832 -38.512469 32.576468 -14.988314 -17.192315 26.592647 29.814931 9.865640 -18.901860 0.000000 0.000000 0.000000 0.000000 0.000000 0.000000 19.416926 28.489986 -0.654906 -11.142856 -10.083263 -4.708128 -33.198697 -56.867568 -16.724738 39.442666 27.659981 -24.522728 0.000000 0.000000 0.000000 0.000000 0.000000 0.000000 7.183530 4.488011 40.298481 1.232349 -1.404847 0.998096 15.124707 18.756425 -17.647713 0.000000 0.000000 0.000000 7.040547 7.304208 40.606742 0.319092 -2.113837 0.511592 -4.451697 -3.194791 -7.314127 0.000000 0.000000 0.000000
-57.028189 73.317170 346.033725 -5.426531 0.024346 -44.039239 2.459735 0.500918 43.880771 0.846013 0.033999 -0.082576 -9.883602 9.229535 -1.662293 0.000000 0.000000 0.000000 22.637197 14.755219 -9.182111 50.159204 -33.900661 17.904980 -9.306343 -8.454111 18.761468 21.381593 10.989485 -11.053705 0.000000 0.000000 0.000000 0.000000 0.000000 0.000000 13.765860 23.101009 0.133266 -0.633801 3.208895 -2.215344 -62.806791 -67.200245 -40.743199 53.121578 42.308314 -35.944429 0.000000 0.000000 0.000000 0.000000 0.000000 0.000000 5.641216 3.743890 44.054670 1.870173 -0.613031 0.535150 16.358245 18.013409 -18.136418 0.000000 0.000000 0.000000 4.621298 7.596295 43.869854 1.860027 -3.227606 1.050113 -7.407441 -7.101410 -10.452268 0.000000 0.000000 0.000000
